<svg width="12" height="16" viewBox="0 0 12 16" fill="none" xmlns="http://www.w3.org/2000/svg">
<path fill-rule="evenodd" clip-rule="evenodd" d="M1 2.25C1 1.55964 1.55964 1 2.25 1H9.75C10.4404 1 11 1.55964 11 2.25V13.75C11 14.4404 10.4404 15 9.75 15H2.25C1.55964 15 1 14.4404 1 13.75L1 2.25ZM6 10.4375C4.79323 10.4375 3.8125 9.45677 3.8125 8.25C3.8125 7.88177 3.90365 7.53177 4.06771 7.22917L3.53542 6.69688C3.25104 7.14531 3.08333 7.6776 3.08333 8.25C3.08333 9.86146 4.38854 11.1667 6 11.1667V12.2604L7.45833 10.8021L6 9.34375V10.4375ZM6 4.23958V5.33333C7.61146 5.33333 8.91667 6.63854 8.91667 8.25C8.91667 8.8224 8.74896 9.35469 8.46458 9.80313L7.93229 9.27083C8.09635 8.96823 8.1875 8.61823 8.1875 8.25C8.1875 7.04323 7.20677 6.0625 6 6.0625V7.15625L4.54167 5.69792L6 4.23958Z" fill="white"/>
</svg>
