<svg width="12" height="16" viewBox="0 0 12 16" fill="none" xmlns="http://www.w3.org/2000/svg">
<path d="M2.20517 15C1.86839 15 1.58333 14.8833 1.35 14.65C1.11667 14.4167 1 14.1316 1 13.7948V2.20517C1 1.86839 1.11667 1.58333 1.35 1.35C1.58333 1.11667 1.86839 1 2.20517 1H7.00133C7.162 1 7.3165 1.03122 7.46483 1.09367C7.61306 1.156 7.74189 1.24189 7.85133 1.35133L10.6487 4.14867C10.7581 4.25811 10.844 4.38694 10.9063 4.53517C10.9688 4.6835 11 4.838 11 4.99867V13.7948C11 14.1316 10.8833 14.4167 10.65 14.65C10.4167 14.8833 10.1316 15 9.79483 15H2.20517ZM7 4.39733C7 4.56922 7.0575 4.71261 7.1725 4.8275C7.28181 4.93691 7.41691 4.99427 7.57781 4.99959C7.58603 4.99986 7.59431 5 7.60267 5H10L7 2V4.39733Z" fill="white"/>
</svg>
