<svg width="12" height="16" viewBox="0 0 12 16" fill="none" xmlns="http://www.w3.org/2000/svg">
<path fill-rule="evenodd" clip-rule="evenodd" d="M1 2.25C1 1.55964 1.55964 1 2.25 1H9.75C10.4404 1 11 1.55964 11 2.25V13.75C11 14.4404 10.4404 15 9.75 15H2.25C1.55964 15 1 14.4404 1 13.75V2.25ZM5.66049 8.3776C5.81632 8.09631 6.05189 7.87905 6.28429 7.66471C6.47059 7.4929 6.65484 7.32296 6.79435 7.12344C7.12612 6.65313 6.94018 5.77448 5.99956 5.77448C5.38341 5.77448 5.08081 6.24115 4.9532 6.6276L4.00893 6.23021C4.26779 5.45365 4.97143 4.78646 5.99591 4.78646C6.85268 4.78646 7.43966 5.17656 7.73862 5.6651C7.99383 6.08437 8.14331 6.86823 7.74956 7.45156C7.52427 7.78386 7.30381 7.99725 7.11209 8.18283C6.93149 8.35764 6.77639 8.50777 6.66674 8.70938C6.5756 8.87708 6.53914 8.98646 6.53914 9.52604H5.48549C5.48507 9.49262 5.48408 9.45674 5.48305 9.41878C5.47524 9.1337 5.46423 8.73152 5.66049 8.3776ZM5.99956 11.7135C6.4006 11.7135 6.72872 11.3854 6.72872 10.9844C6.72872 10.5833 6.4006 10.2552 5.99956 10.2552C5.59852 10.2552 5.27039 10.5833 5.27039 10.9844C5.27039 11.3854 5.59852 11.7135 5.99956 11.7135Z" fill="white"/>
</svg>
