<svg width="10" height="14" viewBox="0 0 10 14" fill="none" xmlns="http://www.w3.org/2000/svg">
<path d="M0 1.25C0 0.559644 0.559644 0 1.25 0H8.75C9.44036 0 10 0.559644 10 1.25V12.75C10 13.4404 9.44036 14 8.75 14H1.25C0.559644 14 0 13.4404 0 12.75L0 1.25Z" fill="#FF0000"/>
<path d="M5 4.33333V3.23958L3.54167 4.69792L5 6.15625V5.0625C6.20677 5.0625 7.1875 6.04323 7.1875 7.25C7.1875 7.61823 7.09635 7.96823 6.93229 8.27083L7.46458 8.80313C7.74896 8.35469 7.91667 7.8224 7.91667 7.25C7.91667 5.63854 6.61146 4.33333 5 4.33333ZM5 9.4375C3.79323 9.4375 2.8125 8.45677 2.8125 7.25C2.8125 6.88177 2.90365 6.53177 3.06771 6.22917L2.53542 5.69688C2.25104 6.14531 2.08333 6.6776 2.08333 7.25C2.08333 8.86146 3.38854 10.1667 5 10.1667V11.2604L6.45833 9.80208L5 8.34375V9.4375Z" fill="white"/>
</svg>
