<svg width="10" height="14" viewBox="0 0 10 14" fill="none" xmlns="http://www.w3.org/2000/svg">
<path d="M0 1.25C0 0.559644 0.559644 0 1.25 0H8.75C9.44036 0 10 0.559644 10 1.25V12.75C10 13.4404 9.44036 14 8.75 14H1.25C0.559644 14 0 13.4404 0 12.75V1.25Z" fill="#FF0000"/>
<path d="M4.66049 7.3776C4.94122 6.87083 5.48081 6.57188 5.79435 6.12344C6.12612 5.65313 5.94018 4.77448 4.99956 4.77448C4.38341 4.77448 4.08081 5.24115 3.9532 5.6276L3.00893 5.23021C3.26779 4.45365 3.97143 3.78646 4.99591 3.78646C5.85268 3.78646 6.43966 4.17656 6.73862 4.6651C6.99383 5.08437 7.14331 5.86823 6.74956 6.45156C6.31206 7.09688 5.89279 7.29375 5.66674 7.70938C5.5756 7.87708 5.53914 7.98646 5.53914 8.52604H4.48549C4.48185 8.24167 4.4381 7.77865 4.66049 7.3776ZM5.72872 9.98438C5.72872 10.3854 5.4006 10.7135 4.99956 10.7135C4.59852 10.7135 4.27039 10.3854 4.27039 9.98438C4.27039 9.58333 4.59852 9.25521 4.99956 9.25521C5.4006 9.25521 5.72872 9.58333 5.72872 9.98438Z" fill="white"/>
</svg>
