<svg width="10" height="14" viewBox="0 0 10 14" fill="none" xmlns="http://www.w3.org/2000/svg">
<path d="M1.20517 14C0.868389 14 0.583333 13.8833 0.35 13.65C0.116667 13.4167 0 13.1316 0 12.7948V1.20517C0 0.868389 0.116667 0.583333 0.35 0.35C0.583333 0.116667 0.868389 0 1.20517 0H6.00133C6.162 0 6.3165 0.0312221 6.46483 0.0936666C6.61306 0.156 6.74189 0.241889 6.85133 0.351334L9.64867 3.14867C9.75811 3.25811 9.844 3.38694 9.90633 3.53517C9.96878 3.6835 10 3.838 10 3.99867V12.7948C10 13.1316 9.88333 13.4167 9.65 13.65C9.41667 13.8833 9.13161 14 8.79483 14H1.20517ZM6 3.39733C6 3.56922 6.0575 3.71261 6.1725 3.8275C6.28739 3.9425 6.43078 4 6.60267 4H9L6 1V3.39733Z" fill="#008939"/>
<path d="M6.1725 3.8275C6.0575 3.71261 6 3.56922 6 3.39733V1L9 4H6.60267C6.52472 4 6.45264 3.98804 6.38641 3.96436C6.30658 3.93579 6.23531 3.89024 6.1725 3.8275Z" fill="white"/>
</svg>
