<svg width="16" height="20" viewBox="0 0 16 20" fill="none" xmlns="http://www.w3.org/2000/svg">
<path d="M6.01925 13.827H9.98075C10.2369 13.827 10.4516 13.7403 10.6248 13.567C10.7979 13.3938 10.8845 13.1792 10.8845 12.923V9.9615C10.8845 9.7055 10.7979 9.49083 10.6248 9.3175C10.4516 9.14433 10.2369 9.05775 9.98075 9.05775H9.89425V8.05775C9.89425 7.53342 9.71125 7.08825 9.34525 6.72225C8.97925 6.35608 8.534 6.173 8.0095 6.173C7.48517 6.173 7.04 6.35608 6.674 6.72225C6.308 7.08825 6.125 7.53342 6.125 8.05775V9.05775H6.01925C5.76308 9.05775 5.54842 9.14433 5.37525 9.3175C5.20208 9.49083 5.1155 9.7055 5.1155 9.9615V12.923C5.1155 13.1792 5.20208 13.3938 5.37525 13.567C5.54842 13.7403 5.76308 13.827 6.01925 13.827ZM7.0095 9.05775V8.05775C7.0095 7.77442 7.10533 7.53692 7.297 7.34525C7.48867 7.15358 7.72617 7.05775 8.0095 7.05775C8.29283 7.05775 8.53033 7.15358 8.722 7.34525C8.91367 7.53692 9.0095 7.77442 9.0095 8.05775V9.05775H7.0095ZM8 19.371C7.89617 19.371 7.79425 19.3627 7.69425 19.346C7.59425 19.3293 7.49742 19.3043 7.40375 19.271C5.29492 18.521 3.61708 17.1913 2.37025 15.2818C1.12342 13.3721 0.5 11.3115 0.5 9.1V4.59625C0.5 4.21642 0.60925 3.8745 0.82775 3.5705C1.04608 3.26667 1.3285 3.04642 1.675 2.90975L7.36725 0.78475C7.58142 0.70775 7.79233 0.66925 8 0.66925C8.20767 0.66925 8.41858 0.70775 8.63275 0.78475L14.325 2.90975C14.6715 3.04642 14.9539 3.26667 15.1723 3.5705C15.3908 3.8745 15.5 4.21642 15.5 4.59625V9.1C15.5 11.3115 14.8766 13.3721 13.6298 15.2818C12.3829 17.1913 10.7051 18.521 8.59625 19.271C8.50258 19.3043 8.40575 19.3293 8.30575 19.346C8.20575 19.3627 8.10383 19.371 8 19.371ZM8 17.9C9.73333 17.35 11.1667 16.25 12.3 14.6C13.4333 12.95 14 11.1167 14 9.1V4.5865C14 4.5225 13.9823 4.46483 13.947 4.4135C13.9118 4.36217 13.8622 4.32367 13.798 4.298L8.10575 2.173C8.07375 2.16017 8.0385 2.15375 8 2.15375C7.9615 2.15375 7.92625 2.16017 7.89425 2.173L2.202 4.298C2.13783 4.32367 2.08817 4.36217 2.053 4.4135C2.01767 4.46483 2 4.5225 2 4.5865V9.1C2 11.1167 2.56667 12.95 3.7 14.6C4.83333 16.25 6.26667 17.35 8 17.9Z" fill="#000000"/>
</svg>
