<svg viewBox="0 0 16 16" width="16" height="16" xmlns="http://www.w3.org/2000/svg">
    <path d="M15.992 7.05153 C15.9857 7.00995 15.8807 6.97251 15.8107 6.91456 C15.5721 6.71562 14.7198 5.87686 13.0422 5.93118 C12.8299 5.93794 12.6363 5.95805 12.46 5.98797 C12.8173 5.87216 13.0022 5.80273 13.11 5.75996 C13.2399 5.70822 14.0961 5.4148 14.5568 3.91077 C14.5961 3.78247 14.7072 3.4724 14.6794 3.44884 C14.6454 3.41993 14.3574 3.47148 14.0664 3.64844 C13.7745 3.82596 12.7938 3.98077 12.6774 3.99936 C12.609 4.01034 12.321 3.96709 11.8909 4.193 C12.3756 3.69522 12.8899 2.98775 13.0281 1.99416 C13.0941 1.51777 13.0661 1.32364 13.0456 1.3249 C13.017 1.32697 13.0007 1.32725 12.9653 1.33769 C12.8572 1.36973 12.7478 1.46073 12.3911 1.69946 C12.0341 1.938 11.6559 2.20231 11.6559 2.20231 C11.6559 2.20231 11.7855 0.905189 11.7452 0.874878 C11.7057 0.845574 10.9691 0.852536 9.83867 2.11152 C9.83867 2.11152 9.96713 1.03314 9.75509 0.626385 C9.75509 0.626385 9.6964 0.332012 9.65024 0.178169 C9.62708 0.101187 9.56684 0.0198406 9.55685 0.0268305 C9.54504 0.0349805 9.44501 0.0516162 9.28439 0.235829 C9.03502 0.521414 7.87593 0.871034 7.68405 2.37074 C7.53884 1.76551 7.23059 0.956194 6.46987 0.546196 C6.0403 0.125606 5.84917 0 5.82712 0.010836 C5.80778 0.0206342 5.81615 0.207686 5.75086 0.628856 C5.67749 1.10094 5.61167 1.25033 5.61167 1.25033 C5.61167 1.25033 4.81455 0.549188 4.79382 0.528614 C4.75637 0.491712 4.27036 2.03107 4.41295 2.79966 C4.41295 2.79966 4.16064 2.60403 3.70159 2.36839 C3.18027 2.10057 2.30328 2.05423 2.30944 2.09553 C2.31995 2.16497 3.04944 3.5904 3.35659 4.09102 C3.35659 4.09102 1.3911 3.75327 1.42538 3.87619 C1.43673 3.91661 1.48374 3.99381 1.56136 4.32188 C1.56136 4.32188 0.789964 4.30504 0.800005 4.36895 C0.811056 4.44035 1.38478 5.38858 1.42889 5.44027 C1.42889 5.44027 0.832084 5.55563 0.706081 5.5625 C0.620706 5.56726 1.10475 6.90371 2.43158 7.23742 C2.63209 7.28784 2.82609 7.32532 3.01101 7.35116 C2.57604 7.34288 2.09499 7.43363 1.54222 7.63856 C1.54222 7.63856 1.22206 7.76314 1.05293 7.89713 C0.88358 8.03172 0.0414514 8.1733 0 8.29598 C0.0196574 8.38622 1.02869 9.07656 1.02869 9.07656 C1.02869 9.07656 0.437654 9.36533 0.396996 9.41957 C0.369159 9.45737 0.346631 9.49098 0.354019 9.50161 C0.36098 9.51179 0.400871 9.55894 0.503217 9.62272 C0.739596 9.76953 2.84368 9.98939 2.97328 9.93743 C3.10261 9.886 1.83028 11.3159 1.81065 12.0365 C1.81065 12.0365 2.01901 12.0514 2.13675 12.0611 C2.22697 12.0683 1.75318 12.9624 1.83901 12.9588 C2.41073 12.9348 3.35903 12.3816 3.53696 12.2541 C3.71476 12.1273 3.95794 11.9386 4.02298 11.8772 C4.08873 11.8157 3.60811 12.6746 3.80479 13.4301 C3.80479 13.4301 3.86728 14.0164 3.8707 14.1349 C3.87368 14.2528 4.04047 14.2533 4.03888 14.3321 C4.03728 14.4288 4.50232 13.965 4.72273 13.7865 C4.94308 13.6085 5.24252 13.2644 5.38739 13.0372 C5.53202 12.8109 5.40314 14.8132 5.34421 15.1983 C5.32511 15.3229 5.35347 15.3359 5.37328 15.3772 C5.37918 15.39 5.58492 15.2205 5.65011 15.1772 C5.74719 15.1126 6.75071 13.7631 6.814 13.4255 C6.814 13.4255 7.34912 15.7767 7.53065 16.0286 C7.56995 16.083 7.60274 16.144 7.62999 16.1016 C7.68326 16.0178 7.76314 15.798 7.82338 15.7798 C7.90067 15.7566 8.1267 15.7281 8.24545 15.393 C8.36449 15.0578 8.57838 14.7304 8.67876 13.8599 C8.67876 13.8599 9.8165 15.3106 9.96432 15.4456 C10.023 15.4993 10.3323 14.985 10.4682 14.159 C10.6048 13.3326 10.3113 12.2225 10.1259 12.1845 C10.1259 12.1845 10.0484 12.0625 10.264 12.1397 C10.3868 12.1839 10.8603 13.0056 11.9522 13.6296 C12.136 13.7346 12.5268 13.7364 12.5291 13.7295 C12.6169 13.4843 11.7599 11.242 11.7599 11.242 C11.7599 11.242 11.7812 11.2163 11.9538 11.2869 C12.1259 11.3578 13.7625 12.416 14.7551 11.92 C14.9565 11.8196 14.9681 11.7983 14.9681 11.7983 C15.0818 11.3095 14.2074 10.3852 13.6706 9.96559 C13.6706 9.96559 15.0806 9.90826 15.2968 9.53432 C15.2968 9.53432 15.5569 9.44074 15.6911 9.2554 C15.7143 9.22297 15.5391 8.90112 15.3358 8.75992 C14.8032 8.39077 14.688 8.25154 14.688 8.25154 C14.688 8.25154 14.8367 8.07179 15.0518 8.00419 C15.2669 7.93673 15.9621 7.50823 15.7763 7.29694 C15.7763 7.29694 16 7.1024 15.992 7.05153 M11.4293 7.02375 C11.2114 7.05956 10.6517 7.07226 11.1672 7.514 C11.1672 7.514 11.2626 7.52102 11.008 7.67104 C10.7535 7.82137 11.5752 7.91067 11.6723 8.01933 C11.7696 8.12905 10.858 8.00927 10.8757 8.28362 C10.8934 8.55841 10.7192 8.38494 11.3246 9.03147 C11.3246 9.03147 10.9609 8.947 10.9186 8.99805 C10.8757 9.04988 11.7151 9.74546 11.7098 9.94333 C11.7098 9.94333 11.5391 10.0618 11.4664 9.95832 C11.3937 9.85421 10.8864 9.2932 10.8042 9.27675 C10.7424 9.26467 10.6239 9.2932 10.569 9.40204 C10.569 9.40204 10.7908 9.9188 10.7215 9.93297 C10.6517 9.94733 10.305 9.70339 10.305 9.70339 C10.305 9.70339 10.0776 9.80351 10.1526 10.0095 C10.2265 10.2158 10.8448 10.9167 10.8094 10.9597 C10.8094 10.9597 10.7568 11.0749 10.677 11.0668 C10.5976 11.0583 10.1697 10.2844 10.0643 10.2547 C9.95887 10.2252 10.1872 10.9778 10.1872 10.9778 C10.1872 10.9778 9.80151 10.5716 9.69858 10.4867 C9.5961 10.4016 9.58083 10.5767 9.58083 10.5767 L9.69258 11.4355 C9.69258 11.4355 8.49067 9.6437 8.78468 11.7803 C8.78468 11.7803 8.7569 11.9013 8.71724 11.8974 C8.67722 11.8931 8.42181 11.1901 8.45107 10.9981 C8.48099 10.8056 8.24044 11.5309 8.24044 11.5309 C8.24044 11.5309 7.86355 10.0337 7.08304 11.568 C7.08304 11.568 7.02861 10.9885 6.90841 10.889 C6.78897 10.7897 6.68935 10.7362 6.65918 10.7544 C6.62958 10.7726 6.35334 11.0355 6.24541 11.0616 C6.13779 11.0872 6.33139 10.7141 6.17166 10.61 C6.17166 10.61 6.18596 10.5062 6.09314 10.357 C5.99991 10.2076 5.9102 10.2635 5.37234 10.8431 C5.37234 10.8431 5.59718 10.2932 5.59511 10.1033 C5.59357 9.91371 5.38419 9.8701 5.38419 9.8701 C5.38419 9.8701 4.99275 10.1676 4.87927 10.1309 C4.7651 10.0941 5.06663 9.72974 5.07193 9.62908 C5.07359 9.59728 5.02857 9.60954 5.02857 9.60954 C5.02857 9.60954 4.98165 9.57584 4.58843 9.80524 L3.95082 10.2108 C3.90397 10.1823 3.84138 10.1875 3.86052 10.0363 C3.8659 9.99266 5.05112 9.43538 4.99821 9.37687 C4.94563 9.31891 4.54951 9.22197 4.54951 9.22197 C4.54951 9.22197 4.79783 8.92241 4.7237 8.88939 C4.64973 8.85716 4.10865 8.81235 4.10865 8.81235 C4.10865 8.81235 4.01514 8.66371 4.03442 8.69306 C4.05229 8.72275 4.56359 8.61212 4.56359 8.61212 L4.22245 8.34414 C4.22245 8.34414 5.08519 8.19252 4.3237 7.73407 C4.04183 7.56464 3.74769 7.44859 3.42978 7.39117 C4.24198 7.43131 4.77921 7.22588 4.68805 6.92848 C4.68805 6.92848 4.66221 6.82055 3.85248 6.52481 C3.85248 6.52481 3.87506 6.42823 3.92906 6.41519 C3.98331 6.40214 4.82518 6.71033 4.76572 6.66084 C4.70567 6.61117 4.39746 6.26849 4.45302 6.27162 C4.50871 6.2741 4.90398 6.44131 5.03512 6.31835 C5.16071 6.20085 5.23963 5.98439 5.32213 5.93738 C5.40489 5.89028 5.10204 5.61016 5.5011 5.73911 C5.5011 5.73911 5.77153 5.58727 5.55842 5.33904 C5.34537 5.08996 4.66989 4.29122 5.7719 5.25563 C6.03541 5.48646 6.69471 4.78309 6.64046 4.40046 C6.64046 4.40046 6.90393 4.66603 6.95975 4.69439 C7.0155 4.72308 7.38434 4.76698 7.46818 4.63919 C7.50676 4.5803 7.33281 4.03583 7.44467 3.79623 C7.44467 3.79623 7.49167 3.79206 7.53589 3.84289 C7.58029 3.89416 7.58534 4.46218 7.78553 4.57008 C7.78553 4.57008 8.01021 4.4384 8.04815 4.34013 C8.08647 4.24166 7.98716 4.95393 8.66135 4.64663 C8.66135 4.64663 8.98948 4.35512 9.08369 4.34637 C9.17727 4.33762 9.01322 4.69266 9.09605 4.81881 C9.17945 4.94553 9.45564 5.03019 9.5434 4.87181 C9.63162 4.71386 10.0522 4.39787 10.0849 4.41056 C10.1176 4.4237 9.87092 5.08181 9.84258 5.14641 C9.80151 5.24051 9.77244 5.37981 9.77244 5.37981 C9.77244 5.37981 9.80469 5.5636 10.0344 5.61424 C10.0344 5.61424 10.4682 5.36084 10.9195 5.03189 C10.8722 5.08884 10.8245 5.14794 10.7763 5.21116 C10.7763 5.21116 10.1924 5.81098 10.1922 5.89778 C10.1929 5.98451 10.3924 6.17944 10.556 6.06918 C10.7197 5.95958 11.1148 5.7959 11.1493 5.82427 C11.1834 5.8525 11.2463 5.93365 11.1642 5.98116 C11.0818 6.02813 10.6222 6.26849 10.6222 6.26849 C10.6222 6.26849 11.1472 6.30443 11.7893 6.17458 C11.0942 6.45661 10.8533 6.8859 10.8595 6.92654 C10.88 7.06438 11.9602 6.78439 11.9899 6.8526 C12.1448 7.20437 11.6477 6.987 11.4293 7.02375" />
</svg>
